<?xml version="1.0" encoding="UTF-8"?>
<svg id="Layer_2" data-name="Layer 2" xmlns="http://www.w3.org/2000/svg" viewBox="0 0 129.02 149.94">
  <defs>
    <style>
      .cls-1 {
        fill: #fff;
      }
    </style>
  </defs>
  <g id="Layer_1-2" data-name="Layer 1">
    <g>
      <path class="cls-1" d="M126.18,118.52c-6.56-6.95-17.13-4.97-26.03-1.45-3.5,1.31-6.78,2.9-9.51,4.32-8.97,4.69-17.74,12.79-26.16,16.9-.29.14-.59.27-.88.4-5.38,1.86-9.99.27-6.41-6.65,4.79-4.86,15.12-8.06,23.63-17.65,1.59-1.79,2.62-4.02,2.87-6.4.32-3.03-.8-5.55-6.27-11.26-3.07-3.2-5.17-7.25-5.8-11.65-1.37-9.67,4.29-17.4,13.66-21.26,1.47-.54,3.02-1,4.65-1.35,5.52-1.2,11.5-.69,16.81-2.93.65-.23,1.28-.48,1.91-.79,14.34-6.96,9.59-24.05-5.8-25.57-5.37-.53-10.43.31-15.04,2.18-20.43,7.49-32.2,35.32-21.29,56.01,2.67,5.07,13.12,14.76,12.33,19.82-.87,5.63-24.46,17.99-29.43,24.44-3.03,3.93-4.69,8.3-.46,12.1,2.88,2.59,5.71,2.65,8.44,1.42,5.87-1.87,11.27-10.35,15.54-13.51,1.62-1.2,3.23-2.11,4.84-2.78,15.23-5.41,29.88,9.74,42.96,4.13.52-.18,1.05-.39,1.57-.63,6.7-3.16,9.07-12.32,3.85-17.85Z"/>
      <path class="cls-1" d="M62.94,115.98c.2-.07.4-.14.6-.23,1.02-.43,1.99-1.05,2.68-1.92,1.79-2.26.79-6.22.13-8.76-.82-3.17-2.19-6.17-3.64-9.1-2.9-5.85-6.4-11.66-7.38-18.22-1.08-6.87-.73-13.97,1.11-20.68,1.38-5.04,4-9.65,7.36-13.63,2.21-2.6,4.58-5.13,7.39-7.1,2.52-1.76,4.5-3.88,7.32-5.3,5.4-2.71,11.83-3.66,16.86-7.1,4.63-3.16,7.65-10.37,5.81-15.79-.75-2.21-2.44-4.03-4.43-5.26s-4.27-1.93-6.56-2.39c-2.48-.5-5.05-.74-7.54-.28-5.51,1-8.25,5.35-9.8,10.37-1.78,5.75-3,11.68-5.07,17.33-3.25,8.85-9.17,17.66-19.52,17.92-6.82.18-13.88-.32-20.51-2.02-6.55-1.68-12.88-4.57-19.71-4.88-2.46-.11-5.26.28-6.72,2.27-.69.93-.98,2.09-1.14,3.23-.72,5.04.98,10.43,4.67,13.93,5.32,5.04,12.13,4.18,18.36,1.49,7.09-3.07,13.71-6.95,21.01-9.59,1.4-.51,2.83-.99,4.31-1.02,1.48-.03,3.05.45,4,1.6,1.47,1.78,1.01,4.42.34,6.64-1.97,6.56-4.15,12.79-5.41,19.55-.77,4.1-1.35,8.24-1.78,12.39-.43,4.13-.03,8.29.59,12.41.42,2.79,1.02,5.6,2.4,8.07.81,1.45,1.89,2.76,3.2,3.78,3.05,2.39,7.36,3.58,11.09,2.3Z"/>
    </g>
  </g>
</svg>